# xmcd CD database file
#
# Track frame offsets:
#	150
#	16908
#	36612
#	57527
#	78683
#	97773
#	115203
#	139858
#	159675
#
# Disc length: 2458 seconds
#
# Revision: 0
# Processed by: cddbd v1.5.1PL0 Copyright (c) Steve Scherf et al.
# Submitted via: CDex 1.51
#
DISCID=78099809
DTITLE=紅龍＆ひまわりシスターズ - アジアが一番
DYEAR=2004
DGENRE=Country
TTITLE0=レボリューション音頭
TTITLE1=張子の虎
TTITLE2=気分はセントウ！
TTITLE3=ヨコスカ バーニング ナイト
TTITLE4=しぶ茶で cha cha cha
TTITLE5=春風は河を渡る
TTITLE6=お囃子〜ひまわりシスターズのテーマ〜
TTITLE7=本気節-横須賀かぼちゃ屋ライブより-
TTITLE8=波と風-未発表スタジオ録音-
EXTD=YEAR: 2004
EXTT0=
EXTT1=
EXTT2=
EXTT3=
EXTT4=
EXTT5=
EXTT6=
EXTT7=
EXTT8=
PLAYORDER=
